# xmcd
#
# Track frame offsets:
#	150
#	17207
#	31155
#	47137
#	65272
#	78355
#	103922
#	117057
#	132250
#	153182
#	173022
#	182485
#	193752
#	206737
#	218767
#	230572
#	243640
#
# Disc length: 3516 seconds
#
# Revision: 0
# Processed by: cddbd v1.4PL0 Copyright (c) Steve Scherf et al.
# Submitted via: audiograbber 1.81.02
#
DISCID=e50dba11
DTITLE=Mirek Cerny - Chlap Zuzanka (Balicek karet 2)
DYEAR=1995
DGENRE=
TTITLE0=Chlap Zuzanka
TTITLE1=Big Bad John
TTITLE2=Historie se opakuje
TTITLE3=Pad velmoci
TTITLE4=Kdepak obycejny lidi jsou
TTITLE5=Dopis premierovi
TTITLE6=Jezis byl venkovan
TTITLE7=Chlap co chce mou Jinny
TTITLE8=Muz co nemel zadne znameni
TTITLE9=Kde jsou nasi hrdinove
TTITLE10=Predvecer meho pokracovani
TTITLE11=Nejednou
TTITLE12=Pratele
TTITLE13=Chlap co ma prst na tlacitku
TTITLE14=Dopis danoveho poplatnika
TTITLE15=Sedlak a buh
TTITLE16=Desiderata
EXTD=
EXTT0=
EXTT1=
EXTT2=
EXTT3=
EXTT4=
EXTT5=
EXTT6=
EXTT7=
EXTT8=
EXTT9=
EXTT10=
EXTT11=
EXTT12=
EXTT13=
EXTT14=
EXTT15=
EXTT16=
PLAYORDER=
